<svg width="15" height="14" viewBox="0 0 15 14" fill="none" xmlns="http://www.w3.org/2000/svg">
<path d="M8.87342 10.9974L7.83167 12.7333C7.7817 12.8166 7.711 12.8855 7.62647 12.9334C7.54195 12.9812 7.44647 13.0064 7.34933 13.0064C7.25219 13.0064 7.15671 12.9812 7.07218 12.9334C6.98765 12.8855 6.91696 12.8166 6.86698 12.7333L5.82636 10.9974C5.77632 10.9141 5.70557 10.8452 5.62099 10.7974C5.53641 10.7496 5.44089 10.7245 5.34373 10.7246H1.16211C1.01293 10.7246 0.869851 10.6653 0.764362 10.5599C0.658873 10.4544 0.599609 10.3113 0.599609 10.1621V1.16211C0.599609 1.01293 0.658873 0.869851 0.764362 0.764362C0.869851 0.658873 1.01293 0.599609 1.16211 0.599609H13.5371C13.6863 0.599609 13.8294 0.658873 13.9349 0.764362C14.0403 0.869851 14.0996 1.01293 14.0996 1.16211V10.1621C14.0996 10.3113 14.0403 10.4544 13.9349 10.5599C13.8294 10.6653 13.6863 10.7246 13.5371 10.7246H9.35548C9.25842 10.7246 9.16302 10.7498 9.07855 10.7976C8.99407 10.8454 8.92341 10.9142 8.87342 10.9974V10.9974Z" stroke="#94010E" stroke-width="1.2" stroke-linecap="round" stroke-linejoin="round"/>
</svg>
